<svg width="18" height="20" viewBox="0 0 18 20" fill="none" xmlns="http://www.w3.org/2000/svg">
<path d="M14.4271 0.561918C14.2273 0.215314 13.8552 0 13.4562 0H9.28662V4.94679H16.9557L14.4271 0.561918Z" fill="white"/>
<path d="M8.11737 0H3.90841C3.50867 0 3.13661 0.215705 2.93674 0.56309L0.41748 4.94679H8.11733V0H8.11737Z" fill="white"/>
<path d="M0 6.11902V18.6218C0 19.3819 0.616757 20.0001 1.37454 20.0001H15.9912C16.749 20.0001 17.3657 19.3819 17.3657 18.6218V6.11902H0ZM11.3357 11.3769L8.3131 14.4085C8.19895 14.523 8.04931 14.5805 7.89972 14.5805C7.75013 14.5805 7.60049 14.523 7.48673 14.4085L6.06974 12.9876C5.84182 12.759 5.84182 12.3878 6.06974 12.1588C6.29804 11.9298 6.66819 11.9298 6.8965 12.1588L7.89976 13.1654L10.5094 10.548C10.7377 10.3191 11.1078 10.3191 11.3357 10.548C11.564 10.777 11.564 11.1479 11.3357 11.3769Z" fill="white"/>
</svg>
