<svg width="27" height="22" viewBox="0 0 27 22" fill="none" xmlns="http://www.w3.org/2000/svg">
<path d="M4.00442 0C4.00371 0 4.00292 0 4.00222 0C3.75462 0 3.52175 0.103676 3.3459 0.292091C3.16812 0.48259 3.07019 0.73624 3.07019 1.00627V16.0951C3.07019 16.6484 3.4909 17.0997 4.00812 17.1011C6.1886 17.1067 9.84178 17.5949 12.362 20.4278V4.63691C12.362 4.44935 12.3174 4.27315 12.2332 4.12734C10.1647 0.54915 6.18984 0.00549151 4.00442 0Z" fill="#858EA9"/>
<path d="M23.1081 16.0952V1.00627C23.1081 0.73624 23.0102 0.48259 22.8324 0.292091C22.6565 0.103676 22.4235 0 22.1762 0C22.1754 0 22.1746 0 22.1739 0C19.9885 0.00558619 16.0136 0.549245 13.9451 4.12743C13.8609 4.27324 13.8164 4.44945 13.8164 4.63701V20.4278C16.3366 17.5949 19.9898 17.1067 22.1702 17.1011C22.6874 17.0997 23.1081 16.6484 23.1081 16.0952Z" fill="#858EA9"/>
<path d="M25.2416 3.47974H24.5624V16.0951C24.5624 17.5079 23.4908 18.6599 22.1736 18.6634C20.3241 18.6681 17.2745 19.0566 15.1147 21.2523C18.8501 20.2699 22.7878 20.9085 25.0319 21.4579C25.3121 21.5264 25.6017 21.4556 25.8262 21.2634C26.0499 21.0717 26.1782 20.7851 26.1782 20.4775V4.48582C26.1783 3.93108 25.758 3.47974 25.2416 3.47974Z" fill="#858EA9"/>
<path d="M1.61584 16.0951V3.47974H0.936608C0.420266 3.47974 0 3.93108 0 4.48582V20.4772C0 20.7849 0.128336 21.0714 0.352043 21.2631C0.576367 21.4552 0.865653 21.5263 1.1463 21.4576C3.39042 20.9082 7.32821 20.2696 11.0634 21.252C8.90368 19.0564 5.85411 18.668 4.0046 18.6633C2.68748 18.6599 1.61584 17.5079 1.61584 16.0951Z" fill="#858EA9"/>
</svg>
