<svg width="27" height="22" viewBox="0 0 27 22" fill="none" xmlns="http://www.w3.org/2000/svg">
<path d="M4.00442 0.00012207C4.00371 0.00012207 4.00292 0.00012207 4.00222 0.00012207C3.75462 0.00012207 3.52175 0.103798 3.3459 0.292213C3.16812 0.482712 3.07019 0.736362 3.07019 1.00639V16.0953C3.07019 16.6486 3.4909 17.0998 4.00812 17.1012C6.1886 17.1068 9.84178 17.595 12.362 20.428V4.63704C12.362 4.44947 12.3174 4.27327 12.2332 4.12746C10.1647 0.549273 6.18984 0.00561358 4.00442 0.00012207Z" fill="white"/>
<path d="M23.1081 16.0952V1.00627C23.1081 0.73624 23.0102 0.48259 22.8324 0.292091C22.6565 0.103676 22.4235 0 22.1762 0C22.1754 0 22.1746 0 22.1739 0C19.9885 0.00558619 16.0136 0.549245 13.9451 4.12743C13.8609 4.27324 13.8164 4.44945 13.8164 4.63701V20.4278C16.3366 17.5949 19.9898 17.1067 22.1702 17.1011C22.6874 17.0997 23.1081 16.6484 23.1081 16.0952Z" fill="white"/>
<path d="M25.2416 3.47986H24.5624V16.0953C24.5624 17.508 23.4908 18.66 22.1736 18.6635C20.3241 18.6682 17.2745 19.0567 15.1147 21.2525C18.8501 20.27 22.7878 20.9087 25.0319 21.458C25.3121 21.5266 25.6017 21.4557 25.8262 21.2635C26.0499 21.0718 26.1782 20.7852 26.1782 20.4776V4.48594C26.1783 3.9312 25.758 3.47986 25.2416 3.47986Z" fill="white"/>
<path d="M1.61584 16.0953V3.47986H0.936608C0.420266 3.47986 0 3.9312 0 4.48594V20.4773C0 20.785 0.128336 21.0715 0.352043 21.2632C0.576367 21.4554 0.865653 21.5265 1.1463 21.4577C3.39042 20.9083 7.32821 20.2698 11.0634 21.2522C8.90368 19.0565 5.85411 18.6681 4.0046 18.6634C2.68748 18.66 1.61584 17.508 1.61584 16.0953Z" fill="white"/>
</svg>
