<svg width="27" height="31" viewBox="0 0 27 31" fill="none" xmlns="http://www.w3.org/2000/svg">
<path d="M7 25.7083H20V22.7916H7V25.7083ZM7 21.3333H20V18.4166H7V21.3333ZM13.5 15.9375C15.2875 14.4791 16.8177 13.1849 18.0906 12.0546C19.3635 10.9244 20 9.73954 20 8.49996C20 7.62496 19.6479 6.87149 18.9437 6.23954C18.2396 5.6076 17.4 5.29163 16.425 5.29163C15.8562 5.29163 15.3078 5.39492 14.7797 5.60152C14.2516 5.80812 13.825 6.09371 13.5 6.45829C13.175 6.09371 12.7484 5.80812 12.2203 5.60152C11.6922 5.39492 11.1437 5.29163 10.575 5.29163C9.6 5.29163 8.76042 5.6076 8.05625 6.23954C7.35208 6.87149 7 7.62496 7 8.49996C7 9.73954 7.61615 10.9062 8.84844 12C10.0807 13.0937 11.6312 14.4062 13.5 15.9375ZM23.25 30.0833H3.75C2.85625 30.0833 2.09115 29.7977 1.45469 29.2265C0.818229 28.6553 0.5 27.9687 0.5 27.1666V3.83329C0.5 3.03121 0.818229 2.34458 1.45469 1.7734C2.09115 1.20222 2.85625 0.916626 3.75 0.916626H23.25C24.1437 0.916626 24.9089 1.20222 25.5453 1.7734C26.1818 2.34458 26.5 3.03121 26.5 3.83329V27.1666C26.5 27.9687 26.1818 28.6553 25.5453 29.2265C24.9089 29.7977 24.1437 30.0833 23.25 30.0833ZM3.75 27.1666H23.25V3.83329H3.75V27.1666Z" fill="#0093B9"/>
</svg>
