<svg width="29" height="27" viewBox="0 0 29 27" fill="none" xmlns="http://www.w3.org/2000/svg">
<path d="M21.0833 13.2353L25.9792 8.22353L25.0069 7.23529L21.0833 11.2235L19.1042 9.21176L18.1319 10.2353L21.0833 13.2353ZM4 27V24.1765H20.6667V27H4ZM22.0556 17.1176C20.1343 17.1176 18.4965 16.4294 17.1424 15.0529C15.7882 13.6765 15.1111 12.0118 15.1111 10.0588C15.1111 8.10588 15.7882 6.44118 17.1424 5.06471C18.4965 3.68824 20.1343 3 22.0556 3C23.9769 3 25.6146 3.68824 26.9688 5.06471C28.3229 6.44118 29 8.10588 29 10.0588C29 12.0118 28.3229 13.6765 26.9688 15.0529C25.6146 16.4294 23.9769 17.1176 22.0556 17.1176ZM4 15.7059V12.8824H12.75C12.912 13.4 13.0972 13.8941 13.3056 14.3647C13.5139 14.8353 13.7685 15.2824 14.0694 15.7059H4ZM4 21.3529V18.5294H17.0556C17.588 18.8588 18.1551 19.1353 18.7569 19.3588C19.3588 19.5824 19.9954 19.7412 20.6667 19.8353V21.3529H4Z" fill="#E8EAED"/>
</svg>
