<svg width="19" height="19" viewBox="0 0 19 19" fill="none" xmlns="http://www.w3.org/2000/svg">
<path d="M7.53442 10.1561C9.16034 10.1561 10.4829 8.8335 10.4829 7.20757C10.4829 5.58165 9.16034 4.25909 7.53442 4.25909C5.90882 4.25909 4.58594 5.58165 4.58594 7.20757C4.58594 8.8335 5.90849 10.1561 7.53442 10.1561ZM5.56876 6.22475H6.55159V5.24192C6.55159 5.06075 6.69836 4.91431 6.8792 4.91431H8.18963C8.37048 4.91431 8.51724 5.06075 8.51724 5.24192V6.22475H9.50007C9.68091 6.22475 9.82768 6.37119 9.82768 6.55236V7.86279C9.82768 8.04396 9.68091 8.1904 9.50007 8.1904H8.51724V9.17323C8.51724 9.35439 8.37048 9.50084 8.18963 9.50084H6.8792C6.69836 9.50084 6.55159 9.35439 6.55159 9.17323V8.1904H5.56876C5.38792 8.1904 5.24116 8.04396 5.24116 7.86279V6.55236C5.24116 6.37119 5.38792 6.22475 5.56876 6.22475Z" fill="white"/>
<path d="M10.4829 1.63804V0.327609V0H4.58594V0.327609V1.63804V1.96565H10.4829V1.63804Z" fill="white"/>
<path d="M7.20741 7.86248V8.8453H7.86263V7.86248C7.86263 7.68131 8.00939 7.53487 8.19023 7.53487H9.17306V6.87965H8.19023C8.00939 6.87965 7.86263 6.73321 7.86263 6.55204V5.56921H7.20741V6.55204C7.20741 6.73321 7.06064 6.87965 6.8798 6.87965H5.89697V7.53487H6.8798C7.06064 7.53487 7.20741 7.68131 7.20741 7.86248Z" fill="white"/>
<path d="M14.2095 0.655396H11.1382V1.31061H13.7591C13.9399 1.31061 14.0867 1.45705 14.0867 1.63822V17.3634C14.0867 17.5446 13.9399 17.6911 13.7591 17.6911H0.982338C0.801498 17.6911 0.654729 17.5446 0.654729 17.3634V1.63822C0.654729 1.45705 0.801498 1.31061 0.982338 1.31061H3.93082V0.655396H0.531876C0.238339 0.655396 -0.000488281 0.894222 -0.000488281 1.18776V17.8139C-0.000488281 18.1074 0.238339 18.3463 0.531876 18.3463H14.2095C14.5031 18.3463 14.7419 18.1074 14.7419 17.8139V1.18776C14.7419 0.894222 14.5031 0.655396 14.2095 0.655396Z" fill="white"/>
<path d="M3.93093 1.96539H1.31006V17.0354H13.4316V1.96539H11.1383V2.293C11.1383 2.47417 10.9916 2.62061 10.8107 2.62061H4.25854C4.0777 2.62061 3.93093 2.47417 3.93093 2.293V1.96539ZM8.18984 12.7765H4.25854C4.0777 12.7765 3.93093 12.63 3.93093 12.4489C3.93093 12.2677 4.0777 12.1213 4.25854 12.1213H8.18984C8.37068 12.1213 8.51745 12.2677 8.51745 12.4489C8.51745 12.63 8.37068 12.7765 8.18984 12.7765ZM10.4831 13.7593C10.6639 13.7593 10.8107 13.9058 10.8107 14.0869C10.8107 14.2681 10.6639 14.4145 10.4831 14.4145H6.5518C6.37096 14.4145 6.22419 14.2681 6.22419 14.0869C6.22419 13.9058 6.37096 13.7593 6.5518 13.7593H10.4831ZM2.29289 12.1213H2.9481C3.12894 12.1213 3.27571 12.2677 3.27571 12.4489C3.27571 12.63 3.12894 12.7765 2.9481 12.7765H2.29289C2.11204 12.7765 1.96528 12.63 1.96528 12.4489C1.96528 12.2677 2.11204 12.1213 2.29289 12.1213ZM2.29289 13.7593H5.24136C5.4222 13.7593 5.56897 13.9058 5.56897 14.0869C5.56897 14.2681 5.4222 14.4145 5.24136 14.4145H2.29289C2.11204 14.4145 1.96528 14.2681 1.96528 14.0869C1.96528 13.9058 2.11204 13.7593 2.29289 13.7593ZM2.9481 16.0526H2.29289C2.11204 16.0526 1.96528 15.9061 1.96528 15.725C1.96528 15.5438 2.11204 15.3974 2.29289 15.3974H2.9481C3.12894 15.3974 3.27571 15.5438 3.27571 15.725C3.27571 15.9061 3.12894 16.0526 2.9481 16.0526ZM8.18984 16.0526H4.25854C4.0777 16.0526 3.93093 15.9061 3.93093 15.725C3.93093 15.5438 4.0777 15.3974 4.25854 15.3974H8.18984C8.37068 15.3974 8.51745 15.5438 8.51745 15.725C8.51745 15.9061 8.37068 16.0526 8.18984 16.0526ZM12.4488 16.0526H9.50028C9.31944 16.0526 9.17267 15.9061 9.17267 15.725C9.17267 15.5438 9.31944 15.3974 9.50028 15.3974H12.4488C12.6296 15.3974 12.7764 15.5438 12.7764 15.725C12.7764 15.9061 12.6296 16.0526 12.4488 16.0526ZM12.4488 14.4158H11.7935C11.6127 14.4158 11.4659 14.2694 11.4659 14.0882C11.4659 13.9071 11.6127 13.7606 11.7935 13.7606H12.4488C12.6296 13.7606 12.7764 13.9071 12.7764 14.0882C12.7764 14.2694 12.6296 14.4158 12.4488 14.4158ZM12.4488 12.1213C12.6296 12.1213 12.7764 12.2677 12.7764 12.4489C12.7764 12.63 12.6296 12.7765 12.4488 12.7765H9.50028C9.31944 12.7765 9.17267 12.63 9.17267 12.4489C9.17267 12.2677 9.31944 12.1213 9.50028 12.1213H12.4488ZM7.53463 3.60344C9.52157 3.60344 11.1383 5.22019 11.1383 7.20713C11.1383 9.19408 9.52157 10.8108 7.53463 10.8108C5.54768 10.8108 3.93093 9.19408 3.93093 7.20713C3.93093 5.22019 5.54735 3.60344 7.53463 3.60344Z" fill="white"/>
<path d="M16.3789 6.87964H18.9998V8.84529H16.3789V6.87964Z" fill="white"/>
<path d="M16.3789 9.50067H18.9998V14.0872H16.3789V9.50067Z" fill="white"/>
<path d="M18.1706 0H17.2081C16.7507 0 16.3789 0.372164 16.3789 0.829178V2.29326V6.22457H18.9998V2.29326V0.829178C18.9998 0.372164 18.6279 0 18.1706 0V0Z" fill="white"/>
<path d="M16.3789 16.3802C16.3789 16.4513 16.4018 16.5201 16.4444 16.5768L17.3617 17.7998V18.6735C17.3617 18.8547 17.5085 19.0011 17.6893 19.0011C17.8702 19.0011 18.017 18.8547 18.017 18.6735V17.7998L18.9343 16.5768C18.9768 16.5201 18.9998 16.4513 18.9998 16.3802V14.7422H16.3789V16.3802Z" fill="white"/>
</svg>
