<svg width="29" height="24" viewBox="0 0 29 24" fill="none" xmlns="http://www.w3.org/2000/svg">
<path d="M19.6 20.9L18.06 19.36L19.7925 17.6H15.2V15.4H19.7925L18.06 13.64L19.6 12.1L24 16.5L19.6 20.9ZM14.65 22C12.67 22 10.9833 21.3033 9.59 19.91C8.19667 18.5167 7.5 16.83 7.5 14.85V14.2175C5.92333 13.9608 4.6125 13.2229 3.5675 12.0037C2.5225 10.7846 2 9.35 2 7.7V1.1H5.3V0H7.5V4.4H5.3V3.3H4.2V7.7C4.2 8.91 4.63083 9.94583 5.4925 10.8075C6.35417 11.6692 7.39 12.1 8.6 12.1C9.81 12.1 10.8458 11.6692 11.7075 10.8075C12.5692 9.94583 13 8.91 13 7.7V3.3H11.9V4.4H9.7V0H11.9V1.1H15.2V7.7C15.2 9.35 14.6775 10.7846 13.6325 12.0037C12.5875 13.2229 11.2767 13.9608 9.7 14.2175V14.85C9.7 16.225 10.1812 17.3937 11.1438 18.3563C12.1062 19.3188 13.275 19.8 14.65 19.8V22Z" fill="#E8EAED"/>
</svg>
