<svg width="48" height="48" viewBox="0 0 48 48" fill="none" xmlns="http://www.w3.org/2000/svg">
<path fill-rule="evenodd" clip-rule="evenodd" d="M24.0001 6C21.1944 6 17.7626 7.02621 15.736 7.73119C14.7483 8.0748 14.2529 9.14841 14.5801 10.1417L16.7279 16.662C16.2605 17.6789 16.0001 18.8103 16.0001 20C16.0001 24.4183 19.5818 28 24.0001 28C28.4184 28 32.0001 24.4183 32.0001 20C32.0001 18.8103 31.7397 17.6789 31.2722 16.6619L33.4201 10.1417C33.7473 9.14841 33.2519 8.0748 32.2642 7.73119C30.2376 7.02621 26.8057 6 24.0001 6ZM18.38 18.425C22.1366 16.8821 25.8636 16.8821 29.6202 18.425C29.6808 18.4498 29.7431 18.4685 29.8064 18.481C29.9328 18.9656 30.0001 19.4746 30.0001 20C30.0001 23.3137 27.3138 26 24.0001 26C20.6864 26 18.0001 23.3137 18.0001 20C18.0001 19.4746 18.0674 18.9656 18.1938 18.481C18.2571 18.4685 18.3194 18.4498 18.38 18.425ZM25.0001 11H27.0001V13H25.0001V15H23.0001V13H21.0001V11H23.0001V9H25.0001V11Z" fill="#108999"/>
<path fill-rule="evenodd" clip-rule="evenodd" d="M22.8508 32.1931L16.8786 28C16.8786 28 6 31.3932 6 35.4669V42.0002H42V35.4669C42 31.3932 31.1214 28 31.1214 28L25.1492 32.1931C24.4596 32.6773 23.5404 32.6773 22.8508 32.1931ZM32 32H34V34H36V36H34V38H32V36H30V34H32V32Z" fill="#108999"/>
</svg>
