<svg width="48" height="49" viewBox="0 0 48 49" fill="none" xmlns="http://www.w3.org/2000/svg">
<path d="M28 8.5C28 10.7091 26.2091 12.5 24 12.5C21.7909 12.5 20 10.7091 20 8.5C20 6.29086 21.7909 4.5 24 4.5C26.2091 4.5 28 6.29086 28 8.5Z" fill="#108999"/>
<path fill-rule="evenodd" clip-rule="evenodd" d="M14.8256 15.5773C15.1698 14.9153 15.8539 14.5 16.6 14.5H29.0184C31.1404 14.5 32.9102 15.2416 34.1536 16.5013C35.3754 17.739 35.9842 19.3719 35.9997 20.9808C36.0152 22.5911 35.436 24.2407 34.2068 25.4941C33.1528 26.5688 31.715 27.2579 30 27.4471V42.5C30 43.5747 29.1507 44.4573 28.0768 44.4985C27.0028 44.5398 26.0883 43.7249 26.0059 42.6534L25.1354 31.3366C26.7915 30.8472 28 29.3147 28 27.5C28 25.2909 26.2091 23.5 24 23.5C23.4175 23.5 22.8641 23.6245 22.365 23.8483C22.1696 23.2726 21.7999 22.7301 21.2513 22.2625C20.2485 21.4077 19.3691 20.6845 18.74 20.1747C18.4259 19.9201 18.174 19.7186 18 19.5802V18.5H17.8142L16.6465 20.7457L16.4947 20.9396L16.5106 20.9521L16.5602 20.9911C16.6041 21.0258 16.6694 21.0775 16.7543 21.1449C16.9239 21.2798 17.1713 21.4777 17.4808 21.7285C18.0998 22.2302 18.9662 22.9426 19.9539 23.7846C20.4596 24.2156 20.562 24.6367 20.5219 24.9839C20.4767 25.3756 20.2288 25.8225 19.7768 26.1823C19.0482 26.7623 17.9383 27.0037 16.8688 26.3563L12.7506 23.0617C12.0049 22.4652 11.785 21.4246 12.2256 20.5773L14.8256 15.5773ZM20.0847 28.3229C19.4522 28.6137 18.738 28.7693 18 28.7381V42.5C18 43.5747 18.8493 44.4573 19.9232 44.4985C20.9972 44.5398 21.9117 43.7249 21.9941 42.6534L22.8646 31.3366C21.4659 30.9233 20.3865 29.7659 20.0847 28.3229ZM24 29.5C25.1046 29.5 26 28.6046 26 27.5C26 26.3954 25.1046 25.5 24 25.5C22.8954 25.5 22 26.3954 22 27.5C22 28.6046 22.8954 29.5 24 29.5ZM30 18.6075V23.3998C30.6409 23.2569 31.0697 22.9801 31.3509 22.6934C31.7767 22.2593 32.006 21.6589 31.9999 21.0192C31.9937 20.3781 31.7508 19.761 31.3069 19.3112C31.0203 19.0209 30.601 18.751 30 18.6075Z" fill="#108999"/>
</svg>
