<svg width="48" height="48" viewBox="0 0 48 48" fill="none" xmlns="http://www.w3.org/2000/svg">
<path fill-rule="evenodd" clip-rule="evenodd" d="M7.06486 17.3877C5.94316 16.3611 5.17722 14.6952 5.02711 12.0041C4.99635 11.4527 5.45192 10.9985 6.00412 11.0082C7.67924 11.0375 8.96207 11.1521 9.94171 11.441C10.3615 10.3525 11.1989 9.32463 12.4538 8.38562C12.777 8.14376 13.2232 8.14376 13.5464 8.38562C14.8116 9.33232 15.6523 10.3694 16.0687 11.4678C17.0775 11.1287 18.3706 11.0298 19.9987 11.0064C20.5509 10.9985 21.0039 11.4527 20.9731 12.0041C20.823 14.6952 20.0571 16.3611 18.9354 17.3876C19.4831 17.7956 19.8006 18.4803 19.6841 19.2206C19.407 20.9801 18.9287 23.6896 18.1761 27.0001H12.0001V29.0001H17.7047C16.9538 32.0756 15.9841 35.5555 14.7474 39.2091C14.1644 40.9315 11.8359 40.9315 11.2529 39.2091C10.7674 37.7747 10.323 36.367 9.91682 35.0001H12.0001V33.0001H9.34097C8.39526 29.6087 7.69131 26.5304 7.17994 24.0001H11.0001V22.0001H6.79304C6.59275 20.9155 6.43577 19.9796 6.31624 19.2206C6.19966 18.4803 6.51718 17.7956 7.06486 17.3877ZM14.1986 12.1767L14.881 13.977L16.706 13.3635C17.2092 13.1944 17.89 13.0934 18.8598 13.0426C18.563 14.9747 17.8476 15.7907 17.1955 16.2125C16.264 16.8149 14.9068 16.9982 13.03 17.0001H12.9702C11.0935 16.9982 9.73623 16.8149 8.80471 16.2125C8.15323 15.7911 7.43859 14.9762 7.14128 13.0481C8.14201 13.1028 8.85431 13.2055 9.37596 13.3593L11.1443 13.8808L11.8077 12.1608C11.9984 11.6665 12.3666 11.1116 13.0001 10.5266C13.6403 11.1178 14.0096 11.6783 14.1986 12.1767Z" fill="#108999"/>
<path fill-rule="evenodd" clip-rule="evenodd" d="M33.7071 13.707C31.7342 15.6799 31.542 18.4344 32.6508 21.0273C37.5055 17.8489 43 21.7797 43 27.9999C43 33.5227 38.0751 37.9999 32 37.9999C25.9249 37.9999 21 33.5227 21 27.9999C21 22.2076 25.7646 18.4005 30.3403 20.4707C29.559 17.6702 29.9635 14.6221 32.2929 12.2928L33.7071 13.707ZM39.9701 30.2424C40.1041 29.7066 39.7783 29.1637 39.2425 29.0297C38.7067 28.8958 38.1638 29.2215 38.0299 29.7573C37.6194 31.399 36.3992 32.6193 34.7575 33.0297C34.2217 33.1637 33.8959 33.7066 34.0299 34.2424C34.1638 34.7782 34.7067 35.104 35.2425 34.97C37.6008 34.3804 39.3806 32.6007 39.9701 30.2424Z" fill="#108999"/>
<path d="M34 18C37 18 39 16 39 13C36 13 34 15 34 18Z" fill="#108999"/>
</svg>
