<svg width="48" height="48" viewBox="0 0 48 48" fill="none" xmlns="http://www.w3.org/2000/svg">
<path fill-rule="evenodd" clip-rule="evenodd" d="M9 6C7.34315 6 6 7.34315 6 9V39C6 40.6569 7.34315 42 9 42H14.389V30.762C11.3452 28.4871 9 25.4224 9 21.4498C9 18.1479 10.3779 14.9813 12.8307 12.6465C15.2834 10.3117 18.61 9.00001 22.0787 9.00001C24.7275 8.99715 27.345 9.54568 29.7476 10.6072C31.6411 11.3662 33.2989 12.5741 34.563 14.1157C35.7174 15.7353 36.3572 17.6371 36.4059 19.5936C36.4164 20.0433 36.4101 20.4697 36.404 20.8822C36.3825 22.3386 36.3635 23.6212 37.0955 25.1382C37.0955 25.1382 39.2594 27.0849 38.9741 28.6468C38.6887 30.2087 35.8708 30.6387 35.8708 30.6387C35.8708 39.048 25.1701 35.5382 25.1701 35.5382V42H39C40.6569 42 42 40.6569 42 39V9C42 7.34315 40.6569 6 39 6H9Z" fill="#108999"/>
<path d="M26.2692 22.4547C26.9133 22.4547 26.7091 22.2657 27.2411 21.9122C27.7812 22.265 28.4187 22.4499 29.0691 22.4426L31.1353 21.7109C31.7175 21.2438 32.1172 20.5963 32.2675 19.8767C32.4177 19.1571 32.3095 18.4092 31.9608 17.758C31.6122 17.1068 31.0442 16.5919 30.3521 16.2995C30.1941 15.6028 29.796 14.9797 29.2239 14.5335L27.2071 13.8466H26.98C26.5314 13.2097 25.8579 12.7553 25.0876 12.5699L21.5968 12.3333C20.878 12.3915 20.2003 12.6832 19.6726 13.1616C19.4232 13.1044 19.1681 13.0748 18.9119 13.0732C18.2916 13.0745 17.6849 13.2504 17.1652 13.5798C16.6454 13.9091 16.2346 14.3779 15.9826 14.9294L14.3396 16.062C13.9308 16.6011 13.7107 17.2537 13.7118 17.9236C13.7078 18.2038 13.746 18.483 13.8253 18.7523C13.3943 19.2966 13.1625 19.9655 13.1668 20.6527C13.1658 21.4497 13.4787 22.2168 14.0411 22.7961C14.0865 23.3667 14.2913 23.9144 14.6336 24.3798C14.9758 24.8453 15.4423 25.2108 15.9826 25.4368C16.6052 25.8166 17.1323 26.3274 17.5253 26.9316C17.9183 27.5358 18.0805 28.2181 18.1668 28.9282H21.5968V25.6136C21.596 25.025 21.7647 24.4481 22.0838 23.9481C22.4029 23.4482 22.5817 23.0453 23.1242 22.7851C23.6325 22.5958 24.0904 22.2974 24.4639 21.9122C24.9959 22.2657 25.6251 22.4547 26.2692 22.4547Z" fill="#108999"/>
<path d="M32.3333 25.25C32.3333 25.9403 31.7736 26.5 31.0833 26.5C30.3929 26.5 29.8333 25.9403 29.8333 25.25C29.8333 24.5596 30.3929 24 31.0833 24C31.7736 24 32.3333 24.5596 32.3333 25.25Z" fill="#108999"/>
<path fill-rule="evenodd" clip-rule="evenodd" d="M21.5 32.3333H18.1667V30.3333H21.5V32.3333Z" fill="#108999"/>
<path fill-rule="evenodd" clip-rule="evenodd" d="M21.5 35.6665H18.1667V33.6665H21.5V35.6665Z" fill="#108999"/>
<path fill-rule="evenodd" clip-rule="evenodd" d="M21.5 39H18.1667V37H21.5V39Z" fill="#108999"/>
</svg>
